<svg width="368" height="332" viewBox="0 0 368 332" fill="none" xmlns="http://www.w3.org/2000/svg">
<path d="M125.319 164.626C118.672 164.626 114.924 156.991 118.99 151.733L229.015 9.42434C233.371 3.7908 240.09 0.492432 247.211 0.492432H250.155C262.858 0.492432 273.155 10.7899 273.155 23.4924V141.626C273.155 154.329 262.858 164.626 250.155 164.626H125.319Z" fill="white"/>
<path d="M113.581 183.604C113.581 176.958 121.216 173.21 126.474 177.275L268.782 287.301C274.416 291.657 277.714 298.376 277.714 305.497L277.714 308.441C277.714 321.143 267.417 331.441 254.714 331.441L136.581 331.441C123.878 331.441 113.581 321.143 113.581 308.441L113.581 183.604Z" fill="white"/>
<path d="M130.695 2.28259e-05C146.822 2.42358e-05 157.942 16.1664 152.173 31.2268L42.6615 317.137C39.3925 325.672 31.1997 331.307 22.0605 331.307C9.87684 331.307 3.29869e-05 321.43 3.4052e-05 309.247L5.90765e-05 23C6.0187e-05 10.2975 10.2975 1.23004e-05 23.0001 1.34109e-05L130.695 2.28259e-05Z" fill="white"/>
<path d="M310.334 299.463C307.876 297.89 307.876 294.299 310.334 292.725L323.143 284.528C323.751 284.138 324.269 283.621 324.658 283.012L332.753 270.368C334.354 267.867 338.026 267.921 339.553 270.469L346.994 282.887C347.407 283.577 347.98 284.156 348.665 284.577L361.856 292.687C364.396 294.248 364.396 297.94 361.856 299.502L348.665 307.612C347.98 308.033 347.407 308.612 346.994 309.301L339.553 321.72C338.026 324.268 334.354 324.322 332.753 321.821L324.658 309.177C324.269 308.568 323.751 308.051 323.143 307.661L310.334 299.463Z" fill="#FF7700"/>
</svg>
